# xmcd CD database file
#
# Track frame offsets:
#	150
#	10962
#	20205
#	29012
#	39677
#	50677
#	60342
#	70365
#	81942
#	93282
#	105670
#	116152
#	130472
#
# Disc length: 1864 seconds
#
# Revision: 32
# Processed by: cddbd v1.5.2PL0 Copyright (c) Steve Scherf et al.
# Submitted via: CDex 1.51
#
DISCID=ba07460d
DTITLE=The Beatles - The Beatles 1962-1966 Disc1
DYEAR=1993
DGENRE=Rock
TTITLE0=Love Me Do
TTITLE1=Please Please Me
TTITLE2=From Me To You
TTITLE3=She Loves You
TTITLE4=I Want To Hold Your Hand
TTITLE5=All My Loving
TTITLE6=Can't Buy Me Love
TTITLE7=A Hard Day's Night
TTITLE8=And I Love Her
TTITLE9=Eight Days A Week
TTITLE10=I Feel Fine
TTITLE11=Ticket To Ride
TTITLE12=Yesterday
EXTD=YEAR: 1993
EXTT0=
EXTT1=
EXTT2=
EXTT3=
EXTT4=
EXTT5=
EXTT6=
EXTT7=
EXTT8=
EXTT9=
EXTT10=
EXTT11=
EXTT12=
PLAYORDER=
